<svg width="14" height="16" viewBox="0 0 14 16" fill="none" xmlns="http://www.w3.org/2000/svg">
<path fill-rule="evenodd" clip-rule="evenodd" d="M9.60789 0.689697V3.67898H7.31023C4.92756 3.67898 2.98915 5.6174 2.98915 8.00007C2.98915 10.3827 4.92756 12.321 7.31023 12.321H9.60789V15.3103H7.31023C3.27287 15.3103 0 12.0374 0 8.00007C0 3.96271 3.27287 0.689697 7.31023 0.689697H9.60789ZM14 9.52718V12.321H9.60787V9.52718H14ZM9.6079 6.47286V9.52717H7.31025C6.46815 9.52717 5.78309 8.84197 5.78309 8.00002C5.78309 7.15792 6.46815 6.47286 7.31025 6.47286H9.6079ZM14 3.67894V6.47287H9.60787V3.67894H14Z" fill="#1792D8"/>
</svg>