<svg width="14" height="16" viewBox="0 0 14 16" fill="none" xmlns="http://www.w3.org/2000/svg">
<path d="M10.1897 3.34296L3.70684 3.34302C3.3302 3.34302 3.00347 3.46943 2.77785 3.68748C2.56626 3.89197 2.34296 4.27402 2.34296 4.99028L2.34296 11.3191C2.34296 11.5072 2.43921 11.8498 2.69052 12.138C2.91259 12.3925 3.25159 12.6021 3.78737 12.6021L10.4861 12.6021C10.6591 12.6021 10.9571 12.5177 11.2072 12.2819C11.4282 12.0734 11.657 11.7034 11.657 11.0378L11.657 10.2736C11.657 9.62665 12.1815 9.10216 12.8285 9.10216C13.4755 9.10216 14 9.62665 14 10.2736L14 11.0378C14 13.6912 12.0103 14.945 10.4861 14.945L3.78737 14.945C1.20385 14.945 0 12.7751 0 11.3191L0 4.99028C0 3.74441 0.410488 2.71709 1.14963 2.00274C1.87475 1.30195 2.81571 1.00006 3.70684 1.00006L10.5609 1C12.232 1 11.6548 3.34295 10.1897 3.34296Z" fill="#1F2749"/>
<path d="M12.4957 1.45789C12.9572 2.47751 12.3476 3.39797 11.6573 4.14546C11.3642 4.46282 11.0536 4.76176 10.7467 5.06549C9.8106 5.9921 8.06949 7.69336 7.66904 8.0727C7.60811 8.13042 7.55763 8.13906 7.53824 8.13937C7.52813 8.13952 7.51968 8.13791 7.51082 8.13431C7.5025 8.13094 7.48347 8.12162 7.45666 8.09481L5.61031 6.24847C5.15282 5.79098 4.41108 5.79098 3.95359 6.24847C3.4961 6.70596 3.4961 7.4477 3.95359 7.90519L5.79994 9.75154C6.83051 10.7821 8.34297 10.6616 9.28032 9.77365C9.81752 9.26478 12.4713 6.65776 12.965 6.16406C13.819 5.3101 14.0274 4.01537 13.6701 2.95599C13.5032 2.46123 12.965 1.71142 12.4957 1.45789Z" fill="#FC704E"/>
</svg>
