<svg width="14" height="16" viewBox="0 0 14 16" fill="none" xmlns="http://www.w3.org/2000/svg">
<path d="M2.67329 11.7378L1.34386 12.5432C1.16351 12.6643 1.24592 12.8725 1.34386 12.9145L6.50693 15.8691C6.8119 16.0436 7.18765 16.0436 7.49262 15.8691L12.7241 12.8753C12.8826 12.7794 12.8566 12.5845 12.7241 12.5188L11.3184 11.7431C11.1998 11.6632 10.9352 11.6897 10.8415 11.7548L7.49262 13.6712C7.18765 13.8457 6.8119 13.8457 6.50693 13.6712L3.12842 11.7378C3.00248 11.6587 2.80297 11.6632 2.67329 11.7378Z" fill="#13133A"/>
<path d="M6.50711 0.130893C6.81208 -0.0436311 7.18783 -0.0436311 7.4928 0.130893C7.4928 0.130893 11.4071 2.37086 11.6505 2.51019C11.8165 2.59596 11.8316 2.82621 11.6505 2.93004C11.64 2.93604 11.6294 2.94211 11.6186 2.94826C10.6967 3.47388 9.5653 3.47255 8.64423 2.94546L7.4928 2.28655C7.18783 2.11203 6.81208 2.11203 6.50711 2.28655L5.3539 2.94648C4.43225 3.47391 3.30058 3.47418 2.3773 2.9496C2.35559 2.93726 2.3344 2.92523 2.3138 2.91353C2.16003 2.84608 2.12802 2.64587 2.3138 2.53055L6.50711 0.130893Z" fill="#13133A"/>
<path d="M13.5072 3.71223C13.8121 3.88675 14 4.20929 14 4.55834V11.4418C14 11.7825 13.7911 11.846 13.5683 11.7271L12.0286 10.8783V6.25056L7.49285 8.84618C7.18788 9.0207 6.81213 9.0207 6.50716 8.84618L1.97139 6.25055V10.8777L0.572316 11.726C0.405577 11.8343 0 11.8685 0 11.4418V4.55834C0 4.20929 0.187872 3.88675 0.492848 3.71223C0.983536 3.44979 1.49056 3.71223 1.49056 3.71223L7.00001 6.87193L12.5008 3.71223C12.5008 3.71223 12.9893 3.41132 13.5072 3.71223Z" fill="#22D172"/>
</svg>